<svg width="235.55999603271485" height="24.77241066957766" viewBox="0 0 370.3114754098361 38.94340337497561" class="css-1j8o68f"><defs id="SvgjsDefs1189"></defs><g id="SvgjsG1190" featurekey="symbolFeature-0" transform="matrix(0.0817460338130614,0,0,0.0817460338130614,-6.442731529749594,-1.0219888249220186)" fill="#fafbd4"><path xmlns="http://www.w3.org/2000/svg" d="M346.709,482.073c-25.674,0-71.068-26.494-71.068-53.149V309.805c0,0-9.627-111.931-25.289-111.931  c-15.662,0-19.484,111.931-19.484,111.931v119.119c0,25.818-43.736,52.285-68.323,52.285c-9.891,0-12.517,7.688-12.517,7.688h209.77  C359.798,488.896,357.251,482.073,346.709,482.073z"></path><circle xmlns="http://www.w3.org/2000/svg" cx="122.09" cy="217.442" r="41.36"></circle><circle xmlns="http://www.w3.org/2000/svg" cx="176.047" cy="309.218" r="37.31"></circle><circle xmlns="http://www.w3.org/2000/svg" cx="392.45" cy="182.36" r="37.311"></circle><circle xmlns="http://www.w3.org/2000/svg" cx="338.129" cy="87.438" r="42.688"></circle><circle xmlns="http://www.w3.org/2000/svg" cx="157.392" cy="81.62" r="48.504"></circle><circle xmlns="http://www.w3.org/2000/svg" cx="203.911" cy="240.371" r="18.552"></circle><circle xmlns="http://www.w3.org/2000/svg" cx="93.738" cy="141.054" r="14.924"></circle><circle xmlns="http://www.w3.org/2000/svg" cx="399.084" cy="110.998" r="14.925"></circle><circle xmlns="http://www.w3.org/2000/svg" cx="302.903" cy="30.629" r="14.924"></circle><circle xmlns="http://www.w3.org/2000/svg" cx="160.313" cy="158.759" r="18.656"></circle><circle xmlns="http://www.w3.org/2000/svg" cx="227.378" cy="146.031" r="36.175"></circle><circle xmlns="http://www.w3.org/2000/svg" cx="311.249" cy="171.746" r="31.585"></circle><path xmlns="http://www.w3.org/2000/svg" d="M288.13,297.163c0,20.085,16.281,36.366,36.361,36.366c20.084,0,36.37-16.281,36.37-36.366  c0-20.084-16.286-36.364-36.37-36.364C304.411,260.799,288.13,277.079,288.13,297.163z"></path><circle xmlns="http://www.w3.org/2000/svg" cx="244.085" cy="47.325" r="34.823"></circle><circle xmlns="http://www.w3.org/2000/svg" cx="332.247" cy="231.324" r="21.199"></circle><path xmlns="http://www.w3.org/2000/svg" d="M399.813,231.646c-7.669,0-13.887,6.218-13.887,13.887c0,7.67,6.218,13.887,13.887,13.887  c7.674,0,13.891-6.217,13.891-13.887C413.702,237.863,407.485,231.646,399.813,231.646z"></path></g><g id="SvgjsG1191" featurekey="nameFeature-0" transform="matrix(0.7564566577430101,0,0,0.7564566577430101,47.459105407744616,-3.2944492553713403)" fill="#fafbd4"><path d="M2.04 35.8 c0 -2.68 0.04 -5.36 0 -8.08 c-0.04 -0.88 0.32 -1.56 1 -2 c2.52 -1.72 5.08 -3.4 7.64 -5.08 c0.72 -0.48 1.48 -0.4 2.16 0.12 l2.88 2.16 c0.52 0.36 0.76 0.88 0.76 1.52 l0 9.32 c0 0.52 0.2 0.84 0.6 1.08 c0.52 0.24 1 0.56 1.48 0.84 c0.56 0.32 0.68 0.76 0.28 1.28 c-0.76 0.96 -1.56 1.84 -2.48 2.68 c-0.6 0.52 -1.56 0.4 -2.32 -0.16 c-0.92 -0.68 -1.84 -1.36 -2.72 -2.08 c-0.24 -0.2 -0.4 -0.2 -0.64 0 l-2.32 2 c-0.96 0.84 -1.8 0.84 -2.84 0.04 l-2.64 -1.96 c-0.6 -0.4 -0.84 -0.96 -0.84 -1.68 z M7.92 24.36 c-0.68 0.32 -0.76 1 -0.76 1.64 c0.08 2.52 0.04 5.04 0.04 7.56 c0 0.4 0.08 0.8 0.4 1.12 c0.52 0.6 1.2 1 1.92 1.32 c0.2 0.12 0.44 0.04 0.6 -0.08 c0.72 -0.44 1.32 -1.04 1.32 -2 c0.04 -1.12 0 -2.24 0.04 -6.04 c0.16 -1.52 -0.6 -2.44 -1.72 -3.24 c-0.56 -0.44 -1.2 -0.6 -1.84 -0.28 z M11.16 22.24 c-0.28 0.28 -0.16 0.56 0.12 0.84 c0.44 0.36 0.84 0.76 1.32 1.12 c0.64 0.48 0.88 1.12 0.88 1.88 c0 2.28 -0.08 4.52 -0.08 6.8 c0 2.88 -0.36 2.96 2.28 4.8 c0.24 0.2 0.52 0.4 0.8 0.04 c0.24 -0.36 0.2 -0.68 -0.16 -0.96 l-1.24 -0.92 c-0.32 -0.28 -0.56 -0.6 -0.56 -1.08 c0.04 -1.48 0.04 -2.92 0.04 -8.76 c0 -0.96 -0.32 -1.84 -1.04 -2.48 c-0.48 -0.48 -1 -0.88 -1.52 -1.28 c-0.28 -0.24 -0.6 -0.28 -0.84 0 z M4.32 27.36 l-0.08 7.92 c0 0.4 0.16 0.8 0.4 1.16 c0.48 0.68 1.2 1.12 1.84 1.6 c0.28 0.2 0.6 0.08 0.8 -0.2 s0.08 -0.52 -0.2 -0.72 c-0.32 -0.24 -0.6 -0.56 -0.96 -0.76 c-0.64 -0.4 -0.8 -0.92 -0.8 -1.64 c0.08 -2.16 0.08 -4.36 0.08 -6.52 c0 -0.68 0 -1.36 0.56 -1.88 c0.16 -0.16 0.16 -0.4 0 -0.6 c-0.12 -0.2 -0.24 -0.28 -0.48 -0.28 c-0.16 0 -0.28 0.08 -0.4 0.24 c-0.48 0.44 -0.76 1 -0.76 1.68 z M21.520000000000003 35.2 c-0.32 -0.24 -0.44 -0.6 -0.4 -1 c0.2 -2.24 0.08 -4.52 0.08 -6.76 c0 -0.88 0.36 -1.52 1.04 -1.96 c2.52 -1.72 5.12 -3.4 7.68 -5.08 c0.64 -0.4 1.4 -0.48 2.04 0 c1.16 0.96 2.52 1.68 3.68 2.64 c0.6 0.52 0.68 0.92 0.2 1.6 c-0.36 0.52 -0.84 0.88 -1.4 1.2 l-1.28 0.84 c-0.72 0.44 -1.36 0.48 -2 -0.08 c-0.68 -0.6 -1.44 -1.16 -2 -1.96 c-0.32 -0.44 -1.16 -0.68 -1.72 -0.52 s-0.92 0.64 -0.96 1.32 c-0.04 0.52 0 1.04 0 1.56 c0.16 2.44 0.08 4.88 0.12 7.36 c0 0.44 0.08 0.88 0.52 1.12 c0.48 0.2 0.92 0.08 1.36 -0.24 c0.76 -0.56 1.48 -1.2 2.16 -1.88 c0.88 -0.76 1.52 -0.8 2.4 -0.08 c0.56 0.4 1.12 0.76 1.6 1.24 c0.76 0.8 0.76 1.44 -0.04 2.16 c-1.16 1.04 -2.32 2.08 -3.52 3.08 c-0.92 0.76 -2.04 0.56 -2.96 0 c-2.24 -1.48 -4.4 -3.04 -6.6 -4.56 z M23.92 26.439999999999998 c-0.44 0.04 -0.56 0.36 -0.52 0.72 l0 6.68 c0 0.72 0.2 1.28 0.8 1.64 c0.28 0.2 0.56 0.28 0.8 -0.04 c0.2 -0.28 0.2 -0.56 -0.08 -0.8 c-0.44 -0.28 -0.44 -0.68 -0.44 -1.12 l0 -6.36 c0 -0.4 -0.12 -0.72 -0.56 -0.72 z M27.92 37.68 c-0.08 0.28 0.04 0.48 0.32 0.6 c0.16 0.08 0.36 0.12 0.56 0.12 c0.6 0.04 1.08 -0.28 1.48 -0.64 l2.28 -2.12 c0.28 -0.24 0.48 -0.52 0.2 -0.84 c-0.32 -0.36 -0.64 -0.28 -0.92 0.04 l-2.08 1.92 c-0.36 0.32 -0.68 0.68 -1.28 0.48 c-0.28 -0.08 -0.48 0.16 -0.56 0.44 z M30.12 22.08 c-0.2 0.24 -0.2 0.52 0 0.72 c0.72 0.64 1.44 1.32 2.2 1.96 c0.16 0.16 0.4 0.12 0.6 0 c0.2 -0.08 0.28 -0.24 0.28 -0.52 c-0.04 -0.04 -0.04 -0.16 -0.12 -0.24 c-0.76 -0.68 -1.52 -1.4 -2.28 -2.04 c-0.24 -0.2 -0.52 -0.08 -0.68 0.12 z M38.28 34.8 c-0.4 -0.28 -0.44 -0.72 -0.4 -1.16 c0.12 -2.32 0.08 -4.6 0.08 -6.88 c0 -0.76 0.4 -1.28 0.96 -1.68 c2.36 -1.68 4.76 -3.32 7.16 -4.96 c0.68 -0.48 1.76 -0.44 2.36 0.08 c0.96 0.92 2.12 1.68 3.12 2.56 c0.44 0.4 0.68 0.96 0.76 1.52 c0.08 0.44 -0.16 0.84 -0.52 1.16 c-2.64 2.2 -5.36 4.32 -8.24 6.2 c-0.8 0.64 -0.64 1.52 -0.56 2.52 c0.12 0.96 0.88 1.28 1.68 0.72 c0.76 -0.6 1.44 -1.24 2.12 -1.88 c0.8 -0.8 1.4 -0.8 2.28 -0.12 l1.24 0.96 c0.96 0.84 1 1.64 0.08 2.52 c-1 0.96 -2 1.92 -3.04 2.84 c-0.84 0.72 -1.96 0.8 -3.04 0.04 c-2.04 -1.44 -4.04 -2.96 -6.04 -4.44 z M42.88 25.32 c0.04 2.48 0.04 2.8 0.12 3.16 c0.16 0.68 0.76 1.12 1.44 1 c1.04 -0.2 1.84 -0.8 2.4 -1.72 c0.32 -0.56 0.32 -1.2 -0.08 -1.68 c-0.44 -0.52 -0.8 -1.08 -1.24 -1.6 c-0.56 -0.6 -1.12 -0.92 -1.72 -0.72 c-0.56 0.2 -0.92 0.76 -0.92 1.56 z M40.480000000000004 26.08 c-0.48 0.04 -0.56 0.36 -0.56 0.76 l0 6.4 c0 0.4 0.08 0.76 0.6 0.76 s0.52 -0.4 0.52 -0.8 c0 -2.12 -0.04 -4.24 0 -6.36 c0 -0.4 -0.08 -0.76 -0.56 -0.76 z M46.400000000000006 21.48 c-0.28 0.2 -0.32 0.52 -0.08 0.8 l2.56 2.88 c0.16 0.16 0.36 0.2 0.56 0.08 c0.24 -0.12 0.32 -0.28 0.36 -0.52 c-0.04 -0.16 -0.08 -0.28 -0.2 -0.44 l-2.4 -2.72 c-0.24 -0.28 -0.56 -0.32 -0.8 -0.08 z M45.720000000000006 36.36 c-0.28 0.24 -0.52 0.52 -0.2 0.88 s0.64 0.24 0.96 -0.04 c0.8 -0.72 1.64 -1.44 2.44 -2.2 c0.16 -0.12 0.32 -0.24 0.32 -0.4 c0 -0.28 -0.16 -0.44 -0.32 -0.56 c-0.28 -0.12 -0.48 -0.04 -0.72 0.16 z M52.56 24.16 c-0.6 -0.4 -0.72 -0.96 -0.2 -1.44 c0.92 -0.92 1.88 -1.76 2.96 -2.48 c0.72 -0.48 1.48 -0.28 2.16 0.2 c1.16 0.84 2.28 1.32 2.28 3.08 c0 1.64 0.04 2.44 0.04 4.24 c0 1.52 0.04 3.12 0 4.68 c0 0.68 0.24 1.16 0.76 1.56 c0.48 0.4 1 0.76 1.52 1.16 c0.84 0.68 0.88 1.28 0.24 2.16 l-1.32 1.68 c-0.64 0.8 -1.8 0.96 -2.6 0.32 c-1 -0.76 -2 -1.6 -3.04 -2.32 c-0.52 -0.36 -0.76 -0.88 -0.76 -1.6 l0 -9.32 c0 -0.52 -0.16 -0.88 -0.64 -1.08 z M59.519999999999996 13.440000000000001 c0.6 0.8 -0.08 1.56 -0.08 1.56 l-1.96 2.12 c-0.44 0.48 -1.32 0.52 -1.76 0 l-1.96 -2.12 s-0.68 -0.76 -0.12 -1.52 l2 -2.08 c0.56 -0.56 1.32 -0.6 1.92 0 z M54.72 22.24 c-0.28 0.28 -0.16 0.56 0.12 0.84 c0.48 0.36 0.92 0.8 1.4 1.2 s0.76 0.64 0.76 1.24 l0 7.72 c-0.04 2.76 -0.04 2.88 2.24 4.44 c0.28 0.2 0.56 0.36 0.84 0 c0.24 -0.36 0.12 -0.68 -0.2 -0.92 c-0.44 -0.32 -0.84 -0.6 -1.24 -0.96 c-0.28 -0.24 -0.52 -0.48 -0.52 -0.96 l0 -4.52 c0 -1.2 -0.04 -3.52 0 -4.72 c0.04 -1 -0.2 -1.44 -1.32 -2.36 l-1.24 -1.04 c-0.28 -0.24 -0.6 -0.24 -0.84 0.04 z M57.76 13.719999999999999 c0.12 -0.12 0.12 -0.28 0 -0.4 l-0.32 -0.32 c-0.08 -0.12 -0.28 -0.12 -0.36 0 l-1.68 1.72 c-0.12 0.08 -0.12 0.28 0 0.36 l0.32 0.32 c0.08 0.12 0.28 0.12 0.36 0 z M73.44 23.4 c0.92 0 1.08 0.2 1.04 1.08 c0 0.44 0 0.88 -0.04 1.32 c-0.08 0.72 -0.36 1 -1.12 1.04 l-1.92 0 c-0.52 0 -0.76 0.24 -0.76 0.72 c0 2.08 -0.04 4.16 -0.04 6.24 c0 0.44 0.24 0.8 0.64 1.08 l1.32 1.04 c0.56 0.44 0.72 0.96 0.32 1.56 c-0.68 1 -1.6 1.88 -2.6 2.56 c-0.64 0.48 -1.4 0.2 -1.96 -0.24 c-0.92 -0.76 -1.76 -1.56 -2.64 -2.32 c-0.4 -0.36 -0.48 -0.84 -0.48 -1.32 c-0.04 -1.92 -0.04 -3.84 -0.04 -15.08 c0.04 -0.88 -0.28 -1.56 -1.04 -2 c-0.44 -0.28 -0.84 -0.56 -1.2 -0.88 c-0.6 -0.44 -0.72 -0.92 -0.36 -1.56 c0.32 -0.56 0.84 -0.92 2.16 -2.16 c0.84 -0.76 1.8 -0.8 2.72 -0.12 c0.92 0.72 1.8 1.48 2.68 2.2 c0.44 0.4 0.52 0.92 0.52 1.48 l0 4.56 c0 0.56 0.24 0.84 0.84 0.8 c0.64 -0.04 1.32 -0.04 1.96 0 z M70.67999999999999 37.2 c0.28 -0.36 0.16 -0.68 -0.2 -0.92 l-1.36 -0.96 c-0.44 -0.32 -0.64 -0.72 -0.64 -1.28 c0.04 -2.48 0 -5 0 -15 c0 -0.76 -0.16 -1.4 -0.72 -1.92 c-0.6 -0.56 -1.24 -1.04 -1.88 -1.56 c-0.32 -0.28 -0.64 -0.24 -0.88 0.08 c-0.24 0.28 -0.08 0.56 0.16 0.76 l1.44 1.2 c0.6 0.4 0.84 0.96 0.8 1.68 l0 14.96 c0 0.8 0.28 1.4 0.92 1.84 c0.52 0.32 1 0.72 1.52 1.08 c0.28 0.24 0.56 0.44 0.84 0.04 z M72.96 25.52 c0.24 0 0.44 -0.12 0.44 -0.4 c0.04 -0.28 -0.16 -0.44 -0.4 -0.44 l-1.68 0 c-0.24 0 -0.36 0.16 -0.36 0.4 c0 0.2 0.2 0.32 0.4 0.36 z M76.64 34.8 c-0.4 -0.28 -0.44 -0.72 -0.4 -1.16 c0.12 -2.32 0.08 -4.6 0.08 -6.88 c0 -0.76 0.4 -1.28 0.96 -1.68 c2.36 -1.68 4.76 -3.32 7.16 -4.96 c0.68 -0.48 1.76 -0.44 2.36 0.08 c0.96 0.92 2.12 1.68 3.12 2.56 c0.44 0.4 0.68 0.96 0.76 1.52 c0.08 0.44 -0.16 0.84 -0.52 1.16 c-2.64 2.2 -5.36 4.32 -8.24 6.2 c-0.8 0.64 -0.64 1.52 -0.56 2.52 c0.12 0.96 0.88 1.28 1.68 0.72 c0.76 -0.6 1.44 -1.24 2.12 -1.88 c0.8 -0.8 1.4 -0.8 2.28 -0.12 l1.24 0.96 c0.96 0.84 1 1.64 0.08 2.52 c-1 0.96 -2 1.92 -3.04 2.84 c-0.84 0.72 -1.96 0.8 -3.04 0.04 c-2.04 -1.44 -4.04 -2.96 -6.04 -4.44 z M81.24 25.32 c0.04 2.48 0.04 2.8 0.12 3.16 c0.16 0.68 0.76 1.12 1.44 1 c1.04 -0.2 1.84 -0.8 2.4 -1.72 c0.32 -0.56 0.32 -1.2 -0.08 -1.68 c-0.44 -0.52 -0.8 -1.08 -1.24 -1.6 c-0.56 -0.6 -1.12 -0.92 -1.72 -0.72 c-0.56 0.2 -0.92 0.76 -0.92 1.56 z M78.84 26.08 c-0.48 0.04 -0.56 0.36 -0.56 0.76 l0 6.4 c0 0.4 0.08 0.76 0.6 0.76 s0.52 -0.4 0.52 -0.8 c0 -2.12 -0.04 -4.24 0 -6.36 c0 -0.4 -0.08 -0.76 -0.56 -0.76 z M84.75999999999999 21.48 c-0.28 0.2 -0.32 0.52 -0.08 0.8 l2.56 2.88 c0.16 0.16 0.36 0.2 0.56 0.08 c0.24 -0.12 0.32 -0.28 0.36 -0.52 c-0.04 -0.16 -0.08 -0.28 -0.2 -0.44 l-2.4 -2.72 c-0.24 -0.28 -0.56 -0.32 -0.8 -0.08 z M84.08 36.36 c-0.28 0.24 -0.52 0.52 -0.2 0.88 s0.64 0.24 0.96 -0.04 c0.8 -0.72 1.64 -1.44 2.44 -2.2 c0.16 -0.12 0.32 -0.24 0.32 -0.4 c0 -0.28 -0.16 -0.44 -0.32 -0.56 c-0.28 -0.12 -0.48 -0.04 -0.72 0.16 z M103.12 35.76 l0 -8.52 c-0.04 -0.96 0.36 -1.68 1.12 -2.2 c7.12 -4.88 8.12 -5.28 8.12 -5.64 c0.04 -0.8 0.04 -1.56 -0.76 -2.04 c-0.48 -0.32 -0.96 -0.72 -1.44 -1.08 c-0.68 -0.52 -0.76 -1.08 -0.28 -1.8 c0.4 -0.64 1.04 -1.08 1.56 -1.64 l0.44 -0.4 c0.8 -0.8 1.76 -0.88 2.64 -0.2 c0.88 0.72 1.76 1.52 2.6 2.28 c0.4 0.36 0.48 0.88 0.52 1.36 l-0.08 17.48 c0 0.64 0.2 1.12 0.8 1.4 c0.44 0.2 0.84 0.48 1.28 0.76 c0.56 0.32 0.68 0.76 0.32 1.24 c-0.76 1.04 -1.64 2.04 -2.6 2.88 c-0.6 0.56 -1.6 0.36 -2.4 -0.28 c-0.84 -0.68 -1.72 -1.36 -2.52 -2.04 c-0.32 -0.28 -0.48 -0.2 -0.76 0 c-0.76 0.72 -1.52 1.4 -2.32 2.08 c-0.92 0.8 -1.76 0.84 -2.72 0.08 c-0.88 -0.72 -1.8 -1.4 -2.72 -2.08 c-0.52 -0.44 -0.8 -0.96 -0.8 -1.64 z M108.28 33.24 c0 0.48 0.08 0.92 0.4 1.28 c0.48 0.56 1.16 0.96 1.84 1.32 c0.2 0.08 0.44 0.12 0.6 0 c0.68 -0.44 1.28 -0.96 1.36 -1.8 c0.2 -2.56 0.04 -5.12 0.08 -7.64 c0 -0.48 -0.16 -0.92 -0.48 -1.28 c-0.56 -0.56 -1.2 -1 -1.88 -1.32 c-0.56 -0.28 -1.16 -0.12 -1.52 0.36 c-0.28 0.36 -0.4 0.8 -0.4 1.28 l0 7.8 z M112.32 14.68 l1.08 0.8 c0.88 0.6 1.24 1.4 1.24 2.48 c-0.24 5.36 0.16 10.84 -0.08 16.2 c-0.08 1.4 0.36 2.4 1.48 3.16 l0.8 0.56 c0.24 0.2 0.56 0.4 0.8 0.04 c0.28 -0.36 0.16 -0.68 -0.16 -0.92 c-0.36 -0.28 -0.72 -0.48 -1.04 -0.76 c-0.52 -0.36 -0.76 -0.8 -0.76 -1.48 c0.04 -2.84 0.04 -5.8 0 -17.36 c0 -0.6 -0.12 -1.24 -0.48 -1.72 c-0.6 -0.8 -1.44 -1.32 -2.24 -1.88 c-0.28 -0.2 -0.6 -0.12 -0.8 0.16 s-0.08 0.52 0.16 0.72 z M105.03999999999999 34.12 c-0.16 1.88 0.92 2.76 2.2 3.64 c0.28 0.16 0.6 0.12 0.84 -0.16 c0.2 -0.28 0.08 -0.52 -0.16 -0.76 c-0.4 -0.28 -0.8 -0.64 -1.24 -0.96 c-0.4 -0.32 -0.56 -0.76 -0.56 -1.28 c0.04 -1.16 0.04 -2.32 0.12 -7.12 c0 -0.44 -0.2 -0.68 -0.64 -0.64 c-0.48 0.04 -0.48 0.44 -0.48 0.76 c-0.04 2.2 0.08 4.36 -0.08 6.52 z M111.08 21.64 c-0.08 0.24 -0.04 0.44 0.12 0.6 c0.4 0.4 0.8 0.76 1.24 1.12 c0.28 0.2 0.56 0.24 0.8 -0.08 c0.2 -0.28 0.16 -0.56 -0.08 -0.8 l-1.16 -0.96 c-0.12 -0.12 -0.28 -0.16 -0.32 -0.16 c-0.32 0 -0.48 0.08 -0.6 0.28 z M122.32000000000001 34.8 c-0.4 -0.28 -0.44 -0.72 -0.4 -1.16 c0.12 -2.32 0.08 -4.6 0.08 -6.88 c0 -0.76 0.4 -1.28 0.96 -1.68 c2.36 -1.68 4.76 -3.32 7.16 -4.96 c0.68 -0.48 1.76 -0.44 2.36 0.08 c0.96 0.92 2.12 1.68 3.12 2.56 c0.44 0.4 0.68 0.96 0.76 1.52 c0.08 0.44 -0.16 0.84 -0.52 1.16 c-2.64 2.2 -5.36 4.32 -8.24 6.2 c-0.8 0.64 -0.64 1.52 -0.56 2.52 c0.12 0.96 0.88 1.28 1.68 0.72 c0.76 -0.6 1.44 -1.24 2.12 -1.88 c0.8 -0.8 1.4 -0.8 2.28 -0.12 l1.24 0.96 c0.96 0.84 1 1.64 0.08 2.52 c-1 0.96 -2 1.92 -3.04 2.84 c-0.84 0.72 -1.96 0.8 -3.04 0.04 c-2.04 -1.44 -4.04 -2.96 -6.04 -4.44 z M126.92 25.32 c0.04 2.48 0.04 2.8 0.12 3.16 c0.16 0.68 0.76 1.12 1.44 1 c1.04 -0.2 1.84 -0.8 2.4 -1.72 c0.32 -0.56 0.32 -1.2 -0.08 -1.68 c-0.44 -0.52 -0.8 -1.08 -1.24 -1.6 c-0.56 -0.6 -1.12 -0.92 -1.72 -0.72 c-0.56 0.2 -0.92 0.76 -0.92 1.56 z M124.52000000000001 26.08 c-0.48 0.04 -0.56 0.36 -0.56 0.76 l0 6.4 c0 0.4 0.08 0.76 0.6 0.76 s0.52 -0.4 0.52 -0.8 c0 -2.12 -0.04 -4.24 0 -6.36 c0 -0.4 -0.08 -0.76 -0.56 -0.76 z M130.44 21.48 c-0.28 0.2 -0.32 0.52 -0.08 0.8 l2.56 2.88 c0.16 0.16 0.36 0.2 0.56 0.08 c0.24 -0.12 0.32 -0.28 0.36 -0.52 c-0.04 -0.16 -0.08 -0.28 -0.2 -0.44 l-2.4 -2.72 c-0.24 -0.28 -0.56 -0.32 -0.8 -0.08 z M129.76 36.36 c-0.28 0.24 -0.52 0.52 -0.2 0.88 s0.64 0.24 0.96 -0.04 c0.8 -0.72 1.64 -1.44 2.44 -2.2 c0.16 -0.12 0.32 -0.24 0.32 -0.4 c0 -0.28 -0.16 -0.44 -0.32 -0.56 c-0.28 -0.12 -0.48 -0.04 -0.72 0.16 z M153.28 40.16 l-0.48 -0.12 c-0.68 -0.36 -1.24 -0.92 -3.52 -2.48 c-0.56 -0.36 -0.84 -0.88 -0.84 -1.6 c0.04 -2.84 0.04 -5.72 0.04 -8.56 c0 -0.72 0.4 -1.24 0.92 -1.56 l8.12 -5.2 c0.76 -0.44 1.52 -0.4 2.24 0.12 l3 2.16 c0.68 0.44 0.96 1.16 0.96 1.92 c0.04 2.56 0.04 5.12 0.04 7.68 c0 0.96 -0.44 1.72 -1.28 2.24 l-7.84 5 c-0.44 0.28 -0.88 0.4 -1.36 0.4 z M153.79999999999998 26.16 c0 2.24 -0.04 4.48 -0.04 6.76 c0 1.68 0.52 2.4 2.12 3 c1.2 0.44 2.24 -0.2 2.28 -1.48 c0.08 -1.28 0.04 -2.68 0.12 -7.6 c0 -0.6 -0.24 -1.08 -0.68 -1.44 c-0.48 -0.36 -1 -0.68 -1.52 -0.96 s-0.96 -0.2 -1.4 0.12 c-0.56 0.36 -0.88 0.88 -0.88 1.6 z M157.84 22.44 c-0.28 0.32 -0.12 0.56 0.16 0.8 l1.96 1.56 c0.36 0.24 0.52 0.56 0.52 1 c-0.08 2.48 0.04 4.92 -0.04 7.4 c0 0.4 0.16 0.64 0.56 0.64 s0.56 -0.24 0.56 -0.6 c0 -2.56 0 -5.12 -0.04 -7.68 c0 -0.52 -0.16 -1 -0.56 -1.32 c-0.72 -0.68 -1.52 -1.28 -2.32 -1.88 c-0.28 -0.28 -0.6 -0.2 -0.8 0.08 z M150.79999999999998 34.72 c0 0.56 0.16 1.08 0.56 1.52 c0.48 0.52 1.04 0.92 1.6 1.32 c0.28 0.2 0.6 0.16 0.8 -0.12 c0.24 -0.28 0.16 -0.52 -0.12 -0.76 c-0.44 -0.32 -0.84 -0.64 -1.24 -1 c-0.32 -0.24 -0.48 -0.52 -0.48 -0.96 l0.04 -7.28 c0 -0.4 -0.08 -0.8 -0.56 -0.76 c-0.44 0 -0.56 0.28 -0.56 0.68 c0 2.44 0 4.88 -0.04 7.36 z M170.79999999999998 39.8 l-2.56 -2.24 c-0.4 -0.36 -0.52 -0.88 -0.52 -1.44 l0 -14.96 c0 -0.8 -0.32 -1.36 -0.96 -1.8 c-0.44 -0.28 -0.88 -0.6 -1.32 -0.92 c-0.68 -0.48 -0.76 -0.96 -0.32 -1.64 c0.32 -0.48 0.72 -0.8 2.16 -2.08 c0.84 -0.72 1.8 -0.84 2.68 -0.16 c0.96 0.72 1.88 1.52 2.8 2.32 c0.36 0.28 0.48 0.68 0.48 1.12 c0 5.12 0.04 10.16 -0.04 15.32 c0 0.8 0.24 1.44 0.92 1.84 c0.36 0.2 0.72 0.48 1.04 0.76 c0.64 0.48 0.76 1 0.28 1.68 c-0.56 0.88 -1.6 1.8 -2.6 2.52 c-0.72 0.56 -1.52 0.12 -2.04 -0.32 z M169.2 18.24 c0.68 0.48 0.96 1.12 0.96 2 c-0.04 4.8 -0.04 9.64 -0.04 14.48 c0 0.92 0.2 1.76 1.12 2.24 c0.48 0.28 0.92 0.68 1.36 1.04 c0.28 0.2 0.56 0.4 0.84 0 c0.28 -0.36 0.16 -0.68 -0.2 -0.92 l-1.28 -0.88 c-0.52 -0.36 -0.72 -0.84 -0.72 -1.52 l0 -14.88 c0 -0.68 -0.12 -1.32 -0.64 -1.8 c-0.64 -0.6 -1.32 -1.12 -1.96 -1.68 c-0.32 -0.24 -0.64 -0.2 -0.88 0.08 s-0.12 0.56 0.16 0.8 c0.4 0.32 0.84 0.72 1.28 1.04 z M176.32 24.16 c-0.6 -0.4 -0.72 -0.96 -0.2 -1.44 c0.92 -0.92 1.88 -1.76 2.96 -2.48 c0.72 -0.48 1.48 -0.28 2.16 0.2 c1.16 0.84 2.28 1.32 2.28 3.08 c0 1.64 0.04 2.44 0.04 4.24 c0 1.52 0.04 3.12 0 4.68 c0 0.68 0.24 1.16 0.76 1.56 c0.48 0.4 1 0.76 1.52 1.16 c0.84 0.68 0.88 1.28 0.24 2.16 l-1.32 1.68 c-0.64 0.8 -1.8 0.96 -2.6 0.32 c-1 -0.76 -2 -1.6 -3.04 -2.32 c-0.52 -0.36 -0.76 -0.88 -0.76 -1.6 l0 -9.32 c0 -0.52 -0.16 -0.88 -0.64 -1.08 z M183.28 13.440000000000001 c0.6 0.8 -0.08 1.56 -0.08 1.56 l-1.96 2.12 c-0.44 0.48 -1.32 0.52 -1.76 0 l-1.96 -2.12 s-0.68 -0.76 -0.12 -1.52 l2 -2.08 c0.56 -0.56 1.32 -0.6 1.92 0 z M178.48 22.24 c-0.28 0.28 -0.16 0.56 0.12 0.84 c0.48 0.36 0.92 0.8 1.4 1.2 s0.76 0.64 0.76 1.24 l0 7.72 c-0.04 2.76 -0.04 2.88 2.24 4.44 c0.28 0.2 0.56 0.36 0.84 0 c0.24 -0.36 0.12 -0.68 -0.2 -0.92 c-0.44 -0.32 -0.84 -0.6 -1.24 -0.96 c-0.28 -0.24 -0.52 -0.48 -0.52 -0.96 l0 -4.52 c0 -1.2 -0.04 -3.52 0 -4.72 c0.04 -1 -0.2 -1.44 -1.32 -2.36 l-1.24 -1.04 c-0.28 -0.24 -0.6 -0.24 -0.84 0.04 z M181.51999999999998 13.719999999999999 c0.12 -0.12 0.12 -0.28 0 -0.4 l-0.32 -0.32 c-0.08 -0.12 -0.28 -0.12 -0.36 0 l-1.68 1.72 c-0.12 0.08 -0.12 0.28 0 0.36 l0.32 0.32 c0.08 0.12 0.28 0.12 0.36 0 z M202.35999999999999 21.08 c1 0.68 2.04 1.48 2.08 2.72 c0.08 2.68 -0.04 5.36 0.08 8.08 c0.08 1.52 -0.68 2.08 -1.32 2.52 l-8.04 5.64 c-0.72 0.52 -1.4 0.24 -2.28 -0.36 c-0.24 -0.16 -2.72 -1.88 -3.04 -2.16 c-0.72 -0.52 -0.68 -1.36 -0.68 -1.68 c0.04 -2.84 0.04 -5.64 0.04 -8.48 c0 -1.28 -0.6 -1.56 -1.84 -2.28 c-1.12 -0.68 -1.12 -1.36 0 -2.12 l2 -1.64 c0.48 -0.48 1.64 -0.84 2.32 -0.44 c2.08 1.28 3.04 2.04 3.68 2.6 c0.6 0.52 0.92 0.04 1.24 -0.2 c0.92 -0.64 1.88 -1.44 2.68 -2.12 c1 -0.88 2.08 -0.76 3.08 -0.08 z M199.11999999999998 33.84 l0 -6.92 c-0.12 -1.4 -1.2 -1.92 -2.48 -2 c-0.96 -0.08 -2.08 0.48 -2.08 2.2 l0 6.08 c0 1.48 1.12 2.6 2.6 2.6 c0.96 0 1.96 -1 1.96 -1.96 z M194.76 38.24 c0.24 -0.36 0.12 -0.68 -0.24 -0.92 l-1.2 -0.92 c-0.28 -0.28 -0.56 -0.48 -0.56 -0.92 l0 -7.48 c0 -0.72 0.08 -1.52 -0.04 -2.24 c-0.28 -1.52 -1.56 -2.24 -2.64 -3.08 c-0.2 -0.2 -0.56 -0.12 -0.72 0.16 s-0.12 0.52 0.12 0.72 c0.36 0.32 0.68 0.68 1.12 1 c0.84 0.56 1.12 1.36 1.12 2.4 c-0.04 2.32 -0.08 4.64 -0.04 6.92 c0 2.4 -0.48 2.48 2.2 4.32 c0.28 0.2 0.6 0.44 0.88 0.04 z M202.04 32.96 c0.48 0 0.56 -0.32 0.56 -0.72 l-0.04 -6.64 c-0.08 -1.48 -1.36 -2.28 -2.28 -3.24 c-0.2 -0.2 -0.48 -0.12 -0.68 0.12 c-0.2 0.2 -0.2 0.48 0 0.68 l0.92 0.96 c0.72 0.64 1 1.4 1 2.36 c-0.04 1.92 -0.04 3.84 -0.04 5.76 c0 0.36 0.08 0.68 0.56 0.72 z M208.19999999999996 35.8 c0 -2.68 0.04 -5.36 0 -8.08 c-0.04 -0.88 0.32 -1.56 1 -2 c2.52 -1.72 5.08 -3.4 7.64 -5.08 c0.72 -0.48 1.48 -0.4 2.16 0.12 l2.88 2.16 c0.52 0.36 0.76 0.88 0.76 1.52 l0 9.32 c0 0.52 0.2 0.84 0.6 1.08 c0.52 0.24 1 0.56 1.48 0.84 c0.56 0.32 0.68 0.76 0.28 1.28 c-0.76 0.96 -1.56 1.84 -2.48 2.68 c-0.6 0.52 -1.56 0.4 -2.32 -0.16 c-0.92 -0.68 -1.84 -1.36 -2.72 -2.08 c-0.24 -0.2 -0.4 -0.2 -0.64 0 l-2.32 2 c-0.96 0.84 -1.8 0.84 -2.84 0.04 l-2.64 -1.96 c-0.6 -0.4 -0.84 -0.96 -0.84 -1.68 z M214.07999999999996 24.36 c-0.68 0.32 -0.76 1 -0.76 1.64 c0.08 2.52 0.04 5.04 0.04 7.56 c0 0.4 0.08 0.8 0.4 1.12 c0.52 0.6 1.2 1 1.92 1.32 c0.2 0.12 0.44 0.04 0.6 -0.08 c0.72 -0.44 1.32 -1.04 1.32 -2 c0.04 -1.12 0 -2.24 0.04 -6.04 c0.16 -1.52 -0.6 -2.44 -1.72 -3.24 c-0.56 -0.44 -1.2 -0.6 -1.84 -0.28 z M217.31999999999996 22.24 c-0.28 0.28 -0.16 0.56 0.12 0.84 c0.44 0.36 0.84 0.76 1.32 1.12 c0.64 0.48 0.88 1.12 0.88 1.88 c0 2.28 -0.08 4.52 -0.08 6.8 c0 2.88 -0.36 2.96 2.28 4.8 c0.24 0.2 0.52 0.4 0.8 0.04 c0.24 -0.36 0.2 -0.68 -0.16 -0.96 l-1.24 -0.92 c-0.32 -0.28 -0.56 -0.6 -0.56 -1.08 c0.04 -1.48 0.04 -2.92 0.04 -8.76 c0 -0.96 -0.32 -1.84 -1.04 -2.48 c-0.48 -0.48 -1 -0.88 -1.52 -1.28 c-0.28 -0.24 -0.6 -0.28 -0.84 0 z M210.47999999999996 27.36 l-0.08 7.92 c0 0.4 0.16 0.8 0.4 1.16 c0.48 0.68 1.2 1.12 1.84 1.6 c0.28 0.2 0.6 0.08 0.8 -0.2 s0.08 -0.52 -0.2 -0.72 c-0.32 -0.24 -0.6 -0.56 -0.96 -0.76 c-0.64 -0.4 -0.8 -0.92 -0.8 -1.64 c0.08 -2.16 0.08 -4.36 0.08 -6.52 c0 -0.68 0 -1.36 0.56 -1.88 c0.16 -0.16 0.16 -0.4 0 -0.6 c-0.12 -0.2 -0.24 -0.28 -0.48 -0.28 c-0.16 0 -0.28 0.08 -0.4 0.24 c-0.48 0.44 -0.76 1 -0.76 1.68 z M251.79999999999998 21.08 c1 0.68 2.04 1.48 2.08 2.72 c0.08 2.68 -0.04 5.36 0.08 8.08 c0.08 1.52 -0.68 2.08 -1.32 2.52 l-8.04 5.64 c-0.72 0.52 -1.4 0.24 -2.28 -0.36 c-0.24 -0.16 -2.72 -1.88 -3.04 -2.16 c-0.72 -0.52 -0.68 -1.36 -0.68 -1.68 c0.04 -2.84 0.04 -5.64 0.04 -8.48 c0 -1.28 -0.6 -1.56 -1.84 -2.28 c-1.12 -0.68 -1.12 -1.36 0 -2.12 l2 -1.64 c0.48 -0.48 1.64 -0.84 2.32 -0.44 c2.08 1.28 3.04 2.04 3.68 2.6 c0.6 0.52 0.92 0.04 1.24 -0.2 c0.92 -0.64 1.88 -1.44 2.68 -2.12 c1 -0.88 2.08 -0.76 3.08 -0.08 z M248.55999999999997 33.84 l0 -6.92 c-0.12 -1.4 -1.2 -1.92 -2.48 -2 c-0.96 -0.08 -2.08 0.48 -2.08 2.2 l0 6.08 c0 1.48 1.12 2.6 2.6 2.6 c0.96 0 1.96 -1 1.96 -1.96 z M244.2 38.24 c0.24 -0.36 0.12 -0.68 -0.24 -0.92 l-1.2 -0.92 c-0.28 -0.28 -0.56 -0.48 -0.56 -0.92 l0 -7.48 c0 -0.72 0.08 -1.52 -0.04 -2.24 c-0.28 -1.52 -1.56 -2.24 -2.64 -3.08 c-0.2 -0.2 -0.56 -0.12 -0.72 0.16 s-0.12 0.52 0.12 0.72 c0.36 0.32 0.68 0.68 1.12 1 c0.84 0.56 1.12 1.36 1.12 2.4 c-0.04 2.32 -0.08 4.64 -0.04 6.92 c0 2.4 -0.48 2.48 2.2 4.32 c0.28 0.2 0.6 0.44 0.88 0.04 z M251.48 32.96 c0.48 0 0.56 -0.32 0.56 -0.72 l-0.04 -6.64 c-0.08 -1.48 -1.36 -2.28 -2.28 -3.24 c-0.2 -0.2 -0.48 -0.12 -0.68 0.12 c-0.2 0.2 -0.2 0.48 0 0.68 l0.92 0.96 c0.72 0.64 1 1.4 1 2.36 c-0.04 1.92 -0.04 3.84 -0.04 5.76 c0 0.36 0.08 0.68 0.56 0.72 z M256.15999999999997 24.16 c-0.6 -0.4 -0.72 -0.96 -0.2 -1.44 c0.92 -0.92 1.88 -1.76 2.96 -2.48 c0.72 -0.48 1.48 -0.28 2.16 0.2 c1.16 0.84 2.28 1.32 2.28 3.08 c0 1.64 0.04 2.44 0.04 4.24 c0 1.52 0.04 3.12 0 4.68 c0 0.68 0.24 1.16 0.76 1.56 c0.48 0.4 1 0.76 1.52 1.16 c0.84 0.68 0.88 1.28 0.24 2.16 l-1.32 1.68 c-0.64 0.8 -1.8 0.96 -2.6 0.32 c-1 -0.76 -2 -1.6 -3.04 -2.32 c-0.52 -0.36 -0.76 -0.88 -0.76 -1.6 l0 -9.32 c0 -0.52 -0.16 -0.88 -0.64 -1.08 z M263.11999999999995 13.440000000000001 c0.6 0.8 -0.08 1.56 -0.08 1.56 l-1.96 2.12 c-0.44 0.48 -1.32 0.52 -1.76 0 l-1.96 -2.12 s-0.68 -0.76 -0.12 -1.52 l2 -2.08 c0.56 -0.56 1.32 -0.6 1.92 0 z M258.32 22.24 c-0.28 0.28 -0.16 0.56 0.12 0.84 c0.48 0.36 0.92 0.8 1.4 1.2 s0.76 0.64 0.76 1.24 l0 7.72 c-0.04 2.76 -0.04 2.88 2.24 4.44 c0.28 0.2 0.56 0.36 0.84 0 c0.24 -0.36 0.12 -0.68 -0.2 -0.92 c-0.44 -0.32 -0.84 -0.6 -1.24 -0.96 c-0.28 -0.24 -0.52 -0.48 -0.52 -0.96 l0 -4.52 c0 -1.2 -0.04 -3.52 0 -4.72 c0.04 -1 -0.2 -1.44 -1.32 -2.36 l-1.24 -1.04 c-0.28 -0.24 -0.6 -0.24 -0.84 0.04 z M261.35999999999996 13.719999999999999 c0.12 -0.12 0.12 -0.28 0 -0.4 l-0.32 -0.32 c-0.08 -0.12 -0.28 -0.12 -0.36 0 l-1.68 1.72 c-0.12 0.08 -0.12 0.28 0 0.36 l0.32 0.32 c0.08 0.12 0.28 0.12 0.36 0 z M281.79999999999995 23.36 c0.64 0.56 0.68 1 0.2 1.72 c-0.36 0.52 -0.88 0.88 -1.4 1.24 l-1 0.68 c-0.72 0.48 -1.36 0.48 -2 -0.12 c-0.6 -0.64 -1.28 -1.2 -1.8 -1.92 c-0.24 -0.32 -0.68 -0.64 -1.2 -0.52 c-0.48 0.08 -0.6 0.52 -0.68 0.92 c-0.2 0.76 -0.08 1.52 -0.08 2.28 c-0.04 0.68 0 1.36 0 5.68 c0 0.68 0.2 1.28 0.84 1.68 c0.4 0.24 0.8 0.56 1.2 0.88 c0.56 0.44 0.68 0.92 0.32 1.56 c-0.32 0.56 -0.84 0.96 -2.04 2.08 c-0.8 0.8 -1.72 0.88 -2.64 0.16 c-0.92 -0.76 -1.8 -1.56 -2.72 -2.36 c-0.32 -0.28 -0.44 -0.64 -0.4 -1.04 c0.12 -2.8 0.04 -5.6 0.04 -8.4 c0 -0.92 0.36 -1.64 1.12 -2.2 l6.92 -4.88 c0.68 -0.48 1.52 -0.44 2.12 0.08 c1 0.92 2.2 1.56 3.2 2.48 z M273.71999999999997 37.4 c0.24 -0.28 0.08 -0.52 -0.16 -0.72 l-1.12 -0.92 c-0.48 -0.32 -0.64 -0.8 -0.6 -1.36 c0.04 -2.32 0.04 -4.64 0.04 -6.96 c0.04 -0.4 -0.04 -0.76 -0.52 -0.76 s-0.56 0.36 -0.56 0.76 l-0.08 6.64 c-0.24 1.8 0.96 2.64 2.2 3.48 c0.28 0.2 0.6 0.16 0.8 -0.16 z M279.96 25.119999999999997 c0.28 -0.32 0.08 -0.56 -0.2 -0.8 l-1.92 -1.68 c-0.16 -0.12 -0.32 -0.24 -0.52 -0.2 c-0.28 0 -0.44 0.12 -0.52 0.32 c-0.12 0.24 -0.04 0.44 0.16 0.6 c0.68 0.6 1.4 1.24 2.12 1.8 c0.28 0.28 0.64 0.32 0.88 -0.04 z M282.9599999999999 35.76 l0 -8.2 c-0.04 -0.8 0.28 -1.44 0.92 -1.88 c2.56 -1.72 5.12 -3.44 7.72 -5.12 c0.68 -0.48 1.48 -0.4 2.16 0.16 l2.84 2.08 c0.56 0.44 0.84 1 0.84 1.72 c-0.04 2.96 0 5.92 0.12 8.88 c0.04 0.96 0.44 1.68 1.24 2.2 c0.16 0.08 0.32 0.16 0.48 0.28 c1.52 0.96 1.8 2.04 0.92 3.64 l-3.4 6.12 c-0.28 0.48 -0.52 1 -0.76 1.48 c-0.52 1.12 -1.36 1.64 -2.56 1.6 c-1.8 -0.08 -3.64 -0.16 -5.44 0.04 c-0.88 0.08 -1.8 0.16 -2.64 0.48 c-0.6 0.24 -1.12 0.56 -1.48 1.16 c-0.16 0.24 -0.32 0.52 -0.68 0.48 c-0.36 -0.08 -0.68 -0.32 -0.72 -0.68 c-0.28 -1.56 -0.64 -3.12 -0.12 -4.72 c0.44 -1.44 1.68 -2.24 3.52 -2.36 c1.72 -0.08 3.48 0.08 5.2 0.2 c1.16 0.08 2.36 0.12 3.52 0.04 c0.64 -0.04 1.2 -0.2 1.72 -0.64 c0.76 -0.64 0.72 -1.44 -0.04 -2.04 l-3.88 -3.16 c-0.32 -0.28 -0.56 -0.48 -1 -0.08 c-0.72 0.68 -1.48 1.28 -2.24 1.92 c-0.92 0.8 -1.8 0.8 -2.72 0.04 l-2.64 -1.92 c-0.6 -0.44 -0.88 -0.96 -0.88 -1.72 z M288.84 24.28 c-0.6 0.32 -0.64 0.92 -0.64 1.56 l0 7.12 c0 1.44 0.92 2.64 2.28 3 c0.2 0.04 0.4 0.04 0.56 -0.08 c0.64 -0.36 1.16 -0.88 1.28 -1.68 c0.36 -2.32 0.04 -4.72 0.12 -6.88 c0 -0.68 -0.2 -1.24 -0.64 -1.76 c-0.32 -0.36 -0.72 -0.72 -1.12 -1 c-0.6 -0.44 -1.2 -0.6 -1.84 -0.28 z M292.03999999999996 22.28 c-0.2 0.24 -0.16 0.52 0.08 0.72 c0.32 0.32 0.64 0.68 1.04 0.92 c1.04 0.72 1.28 1.76 1.24 2.92 c-0.12 2.6 -0.04 5.2 -0.08 7.76 c0 0.92 0.28 1.6 1 2.16 c0.68 0.48 1.36 0.96 2 1.52 c0.36 0.28 0.72 0.6 0.52 1.16 c-0.12 0.32 0.12 0.56 0.4 0.64 c0.32 0.12 0.48 -0.04 0.6 -0.32 c0.24 -0.44 0.24 -0.88 0 -1.32 c-0.24 -0.52 -0.68 -0.92 -1.12 -1.28 c-0.52 -0.44 -1.08 -0.8 -1.64 -1.24 c-0.48 -0.36 -0.72 -0.76 -0.68 -1.4 c0.04 -1.44 0 -2.88 0 -8.64 c0 -0.72 -0.12 -1.4 -0.6 -1.92 c-0.64 -0.64 -1.32 -1.2 -1.96 -1.8 c-0.28 -0.2 -0.56 -0.16 -0.8 0.12 z M285.0799999999999 27.68 l0 6.8 c-0.04 1.64 0.8 2.92 2.28 3.56 c0.28 0.12 0.56 0.04 0.72 -0.2 c0.2 -0.28 0.12 -0.52 -0.08 -0.68 c-0.36 -0.32 -0.68 -0.64 -1.08 -0.88 c-0.56 -0.36 -0.76 -0.84 -0.76 -1.48 c0.04 -2.32 0.08 -4.56 0.08 -6.84 c0 -0.6 0.08 -1.16 0.52 -1.6 c0.24 -0.28 0.24 -0.56 -0.04 -0.8 s-0.52 -0.2 -0.76 0.04 c-0.52 0.56 -0.88 1.32 -0.88 2.08 z M295.79999999999995 45.88 c0.24 -0.24 0.28 -0.56 0.04 -0.84 c-0.24 -0.24 -0.52 -0.24 -0.76 -0.04 c-0.28 0.32 -0.64 0.32 -1 0.32 c-2.76 -0.04 -5.56 -0.04 -8.32 -0.04 c-0.48 0 -0.92 0.08 -1.32 0.24 c-0.48 0.2 -0.8 0.48 -1 0.92 c-0.08 0.28 -0.12 0.56 0.2 0.76 c0.28 0.16 0.6 0.12 0.76 -0.2 c0.32 -0.52 0.76 -0.64 1.32 -0.64 l8.64 0 c0.52 0 1.04 -0.08 1.44 -0.48 z M302.67999999999995 34.8 c-0.4 -0.28 -0.44 -0.72 -0.4 -1.16 c0.12 -2.32 0.08 -4.6 0.08 -6.88 c0 -0.76 0.4 -1.28 0.96 -1.68 c2.36 -1.68 4.76 -3.32 7.16 -4.96 c0.68 -0.48 1.76 -0.44 2.36 0.08 c0.96 0.92 2.12 1.68 3.12 2.56 c0.44 0.4 0.68 0.96 0.76 1.52 c0.08 0.44 -0.16 0.84 -0.52 1.16 c-2.64 2.2 -5.36 4.32 -8.24 6.2 c-0.8 0.64 -0.64 1.52 -0.56 2.52 c0.12 0.96 0.88 1.28 1.68 0.72 c0.76 -0.6 1.44 -1.24 2.12 -1.88 c0.8 -0.8 1.4 -0.8 2.28 -0.12 l1.24 0.96 c0.96 0.84 1 1.64 0.08 2.52 c-1 0.96 -2 1.92 -3.04 2.84 c-0.84 0.72 -1.96 0.8 -3.04 0.04 c-2.04 -1.44 -4.04 -2.96 -6.04 -4.44 z M307.28 25.32 c0.04 2.48 0.04 2.8 0.12 3.16 c0.16 0.68 0.76 1.12 1.44 1 c1.04 -0.2 1.84 -0.8 2.4 -1.72 c0.32 -0.56 0.32 -1.2 -0.08 -1.68 c-0.44 -0.52 -0.8 -1.08 -1.24 -1.6 c-0.56 -0.6 -1.12 -0.92 -1.72 -0.72 c-0.56 0.2 -0.92 0.76 -0.92 1.56 z M304.87999999999994 26.08 c-0.48 0.04 -0.56 0.36 -0.56 0.76 l0 6.4 c0 0.4 0.08 0.76 0.6 0.76 s0.52 -0.4 0.52 -0.8 c0 -2.12 -0.04 -4.24 0 -6.36 c0 -0.4 -0.08 -0.76 -0.56 -0.76 z M310.79999999999995 21.48 c-0.28 0.2 -0.32 0.52 -0.08 0.8 l2.56 2.88 c0.16 0.16 0.36 0.2 0.56 0.08 c0.24 -0.12 0.32 -0.28 0.36 -0.52 c-0.04 -0.16 -0.08 -0.28 -0.2 -0.44 l-2.4 -2.72 c-0.24 -0.28 -0.56 -0.32 -0.8 -0.08 z M310.11999999999995 36.36 c-0.28 0.24 -0.52 0.52 -0.2 0.88 s0.64 0.24 0.96 -0.04 c0.8 -0.72 1.64 -1.44 2.44 -2.2 c0.16 -0.12 0.32 -0.24 0.32 -0.4 c0 -0.28 -0.16 -0.44 -0.32 -0.56 c-0.28 -0.12 -0.48 -0.04 -0.72 0.16 z M324.4799999999999 23.12 c0.32 0.24 0.48 0.24 0.76 0 l2.64 -1.92 c1 -0.76 1.96 -0.76 3 -0.04 c0.72 0.44 1.4 0.96 2.12 1.44 c0.92 0.56 1.24 1.32 1.24 2.36 l-0.08 8.8 c0 0.56 0.2 0.92 0.72 1.2 c0.48 0.2 0.96 0.48 1.4 0.76 c0.64 0.44 0.72 1 0.16 1.52 c-0.92 0.84 -1.88 1.68 -2.92 2.36 c-0.8 0.6 -1.68 0.32 -2.44 -0.2 l-2.88 -2.16 c-0.36 -0.28 -0.6 -0.32 -0.96 -0.04 c-1.04 0.8 -2.08 1.52 -3.12 2.32 c-0.52 0.4 -1.2 0.92 -2.04 0.52 c-0.96 -0.48 -1.76 -1.16 -2.6 -1.8 c-0.48 -0.32 -0.48 -1.08 -0.48 -1.72 l0 -9.2 c0 -1.28 -0.8 -1.76 -1.92 -2.32 c-0.76 -0.48 -0.88 -0.96 -0.24 -1.64 c0.6 -0.72 1.24 -1.36 1.88 -2 c1 -1.04 2 -1.12 3.16 -0.24 c0.88 0.64 1.76 1.32 2.6 2 z M328.11999999999995 25.48 c-0.64 -0.72 -1.44 -0.96 -2.28 -0.68 c-0.88 0.32 -1.4 0.92 -1.4 1.84 l0 7.36 c0 0.36 0.12 0.68 0.36 0.96 c0.56 0.64 1.84 0.96 2.6 0.68 c0.8 -0.28 1.4 -1.24 1.4 -2.2 l0.08 -5.56 c0 -0.88 -0.16 -1.68 -0.76 -2.4 z M328.87999999999994 22.44 c-0.28 0.32 -0.16 0.68 0.16 0.92 c0.4 0.32 0.76 0.68 1.2 0.92 c0.84 0.48 1.08 1.2 1.04 2.16 c-0.08 2.32 -0.08 4.68 -0.08 7.04 c-0.04 2.6 0.12 2.84 2.28 4.32 c0.28 0.2 0.6 0.4 0.84 0 c0.24 -0.36 0.12 -0.68 -0.24 -0.92 l-1.16 -0.92 c-0.4 -0.28 -0.56 -0.64 -0.56 -1.16 c0.04 -1.52 0 -3 0 -9.16 c0 -0.72 -0.2 -1.32 -0.84 -1.76 l-1.8 -1.36 c-0.28 -0.24 -0.56 -0.4 -0.84 -0.08 z M324.19999999999993 37.84 c0.24 -0.28 0.2 -0.6 -0.08 -0.84 c-0.2 -0.2 -0.44 -0.4 -0.64 -0.52 c-0.92 -0.52 -1.24 -1.24 -1.24 -2.36 c0.08 -2.52 0 -5.04 0.04 -7.6 c0 -0.84 -0.04 -1.68 -0.6 -2.36 c-0.6 -0.76 -1.32 -1.28 -2.04 -1.88 c-0.28 -0.2 -0.6 -0.16 -0.8 0.12 c-0.24 0.28 -0.12 0.52 0.08 0.72 c0.4 0.36 0.8 0.76 1.24 1.08 c0.76 0.56 1.04 1.28 1 2.2 l-0.08 7 c-0.28 2.04 0.56 3.4 2.28 4.4 c0.28 0.16 0.48 0.44 0.84 0.04 z M349.67999999999995 34.8 c-0.4 -0.28 -0.44 -0.72 -0.4 -1.16 c0.12 -2.32 0.08 -4.6 0.08 -6.88 c0 -0.76 0.4 -1.28 0.96 -1.68 c2.36 -1.68 4.76 -3.32 7.16 -4.96 c0.68 -0.48 1.76 -0.44 2.36 0.08 c0.96 0.92 2.12 1.68 3.12 2.56 c0.44 0.4 0.68 0.96 0.76 1.52 c0.08 0.44 -0.16 0.84 -0.52 1.16 c-2.64 2.2 -5.36 4.32 -8.24 6.2 c-0.8 0.64 -0.64 1.52 -0.56 2.52 c0.12 0.96 0.88 1.28 1.68 0.72 c0.76 -0.6 1.44 -1.24 2.12 -1.88 c0.8 -0.8 1.4 -0.8 2.28 -0.12 l1.24 0.96 c0.96 0.84 1 1.64 0.08 2.52 c-1 0.96 -2 1.92 -3.04 2.84 c-0.84 0.72 -1.96 0.8 -3.04 0.04 c-2.04 -1.44 -4.04 -2.96 -6.04 -4.44 z M354.28 25.32 c0.04 2.48 0.04 2.8 0.12 3.16 c0.16 0.68 0.76 1.12 1.44 1 c1.04 -0.2 1.84 -0.8 2.4 -1.72 c0.32 -0.56 0.32 -1.2 -0.08 -1.68 c-0.44 -0.52 -0.8 -1.08 -1.24 -1.6 c-0.56 -0.6 -1.12 -0.92 -1.72 -0.72 c-0.56 0.2 -0.92 0.76 -0.92 1.56 z M351.87999999999994 26.08 c-0.48 0.04 -0.56 0.36 -0.56 0.76 l0 6.4 c0 0.4 0.08 0.76 0.6 0.76 s0.52 -0.4 0.52 -0.8 c0 -2.12 -0.04 -4.24 0 -6.36 c0 -0.4 -0.08 -0.76 -0.56 -0.76 z M357.79999999999995 21.48 c-0.28 0.2 -0.32 0.52 -0.08 0.8 l2.56 2.88 c0.16 0.16 0.36 0.2 0.56 0.08 c0.24 -0.12 0.32 -0.28 0.36 -0.52 c-0.04 -0.16 -0.08 -0.28 -0.2 -0.44 l-2.4 -2.72 c-0.24 -0.28 -0.56 -0.32 -0.8 -0.08 z M357.11999999999995 36.36 c-0.28 0.24 -0.52 0.52 -0.2 0.88 s0.64 0.24 0.96 -0.04 c0.8 -0.72 1.64 -1.44 2.44 -2.2 c0.16 -0.12 0.32 -0.24 0.32 -0.4 c0 -0.28 -0.16 -0.44 -0.32 -0.56 c-0.28 -0.12 -0.48 -0.04 -0.72 0.16 z M379.2799999999999 35.4 c1.84 -0.04 1.88 0.04 1.88 1.88 c0 0.6 0.04 1.16 0 1.76 c-0.04 0.76 -0.44 1.12 -1.2 1.12 s-1.48 -0.04 -2.24 0 c-1.4 0.12 -2.28 -0.56 -3 -1.6 l-1.96 -3.08 c-0.2 -0.28 -0.32 -0.64 -0.72 -0.52 c-0.36 0.08 -0.36 0.44 -0.44 0.76 l-0.48 2.76 c-0.24 1.2 -0.8 1.64 -2 1.64 c-1.16 0 -2.28 0 -3.44 -0.04 c-1.08 0 -1.36 -0.32 -1.4 -1.36 c0 -0.68 -0.04 -1.36 -0.04 -2 c-0.04 -0.88 0.4 -1.32 1.28 -1.36 l3.52 0 c0.92 0 1.36 -0.44 1.44 -1.36 c0.08 -0.56 0 -1.16 -0.2 -1.68 c-0.44 -1.52 -1.08 -2.92 -1.72 -4.36 c-0.72 -1.64 -1.88 -2.52 -3.76 -2.44 c-1.12 0.08 -1.4 -0.28 -1.4 -1.4 l0 -2.04 c0.04 -0.96 0.4 -1.28 1.32 -1.28 l2.24 0 c1.36 0 2.28 0.68 2.92 1.8 c0.56 1.08 1.04 2.2 1.56 3.28 c0.12 0.24 0.2 0.56 0.44 0.56 c0.28 0 0.28 -0.36 0.36 -0.56 c0.4 -1.16 0.76 -2.32 1.12 -3.48 c0.28 -0.72 0.68 -1.6 1.6 -1.56 l4.28 0 c0.8 0 1.04 0.28 1.04 1.04 c0.04 0.72 0.04 1.44 0 2.16 c0 0.92 -0.4 1.32 -1.32 1.32 c-1.12 0 -2.2 0 -3.28 -0.08 c-0.68 0 -1 0.32 -1.24 0.88 c-0.32 0.8 -0.24 1.68 -0.12 2.52 c0.4 2.28 1.44 4.2 3 5.92 c0.52 0.56 1.12 0.84 1.96 0.8 z M379.5199999999999 38.2 c0.4 -0.04 0.64 -0.16 0.64 -0.56 s-0.28 -0.56 -0.64 -0.56 l-0.4 0 c-1.24 0.08 -2.16 -0.44 -2.96 -1.28 c-0.4 -0.44 -0.76 -0.96 -1.04 -1.48 l-5.64 -9.92 c-0.76 -1.4 -1.44 -2 -3.44 -2 l-1.08 0 c-0.36 0 -0.56 0.16 -0.56 0.52 s0.24 0.56 0.56 0.56 c0.44 0 0.84 -0.04 1.28 -0.04 c0.92 -0.04 1.64 0.36 2.12 1.16 l5.48 9.76 c0.36 0.68 0.8 1.32 1.28 1.92 c1.16 1.4 2.6 2.08 4.4 1.92 z M375.0799999999999 22.2 c-0.4 0 -0.68 0.12 -0.64 0.56 c0 0.44 0.28 0.56 0.64 0.56 l3.56 0 c0.36 0 0.64 -0.16 0.64 -0.56 s-0.24 -0.56 -0.64 -0.56 l-3.56 0 z M369.31999999999994 38.2 c0.36 0 0.6 -0.16 0.6 -0.56 c0.04 -0.4 -0.24 -0.56 -0.6 -0.56 l-3.56 0 c-0.4 0 -0.68 0.16 -0.68 0.6 c0.04 0.4 0.32 0.52 0.68 0.52 l3.56 0 z M391.87999999999994 23.4 c0.92 0 1.08 0.2 1.04 1.08 c0 0.44 0 0.88 -0.04 1.32 c-0.08 0.72 -0.36 1 -1.12 1.04 l-1.92 0 c-0.52 0 -0.76 0.24 -0.76 0.72 c0 2.08 -0.04 4.16 -0.04 6.24 c0 0.44 0.24 0.8 0.64 1.08 l1.32 1.04 c0.56 0.44 0.72 0.96 0.32 1.56 c-0.68 1 -1.6 1.88 -2.6 2.56 c-0.64 0.48 -1.4 0.2 -1.96 -0.24 c-0.92 -0.76 -1.76 -1.56 -2.64 -2.32 c-0.4 -0.36 -0.48 -0.84 -0.48 -1.32 c-0.04 -1.92 -0.04 -3.84 -0.04 -15.08 c0.04 -0.88 -0.28 -1.56 -1.04 -2 c-0.44 -0.28 -0.84 -0.56 -1.2 -0.88 c-0.6 -0.44 -0.72 -0.92 -0.36 -1.56 c0.32 -0.56 0.84 -0.92 2.16 -2.16 c0.84 -0.76 1.8 -0.8 2.72 -0.12 c0.92 0.72 1.8 1.48 2.68 2.2 c0.44 0.4 0.52 0.92 0.52 1.48 l0 4.56 c0 0.56 0.24 0.84 0.84 0.8 c0.64 -0.04 1.32 -0.04 1.96 0 z M389.11999999999995 37.2 c0.28 -0.36 0.16 -0.68 -0.2 -0.92 l-1.36 -0.96 c-0.44 -0.32 -0.64 -0.72 -0.64 -1.28 c0.04 -2.48 0 -5 0 -15 c0 -0.76 -0.16 -1.4 -0.72 -1.92 c-0.6 -0.56 -1.24 -1.04 -1.88 -1.56 c-0.32 -0.28 -0.64 -0.24 -0.88 0.08 c-0.24 0.28 -0.08 0.56 0.16 0.76 l1.44 1.2 c0.6 0.4 0.84 0.96 0.8 1.68 l0 14.96 c0 0.8 0.28 1.4 0.92 1.84 c0.52 0.32 1 0.72 1.52 1.08 c0.28 0.24 0.56 0.44 0.84 0.04 z M391.3999999999999 25.52 c0.24 0 0.44 -0.12 0.44 -0.4 c0.04 -0.28 -0.16 -0.44 -0.4 -0.44 l-1.68 0 c-0.24 0 -0.36 0.16 -0.36 0.4 c0 0.2 0.2 0.32 0.4 0.36 z M408.3999999999999 23.36 c0.64 0.56 0.68 1 0.2 1.72 c-0.36 0.52 -0.88 0.88 -1.4 1.24 l-1 0.68 c-0.72 0.48 -1.36 0.48 -2 -0.12 c-0.6 -0.64 -1.28 -1.2 -1.8 -1.92 c-0.24 -0.32 -0.68 -0.64 -1.2 -0.52 c-0.48 0.08 -0.6 0.52 -0.68 0.92 c-0.2 0.76 -0.08 1.52 -0.08 2.28 c-0.04 0.68 0 1.36 0 5.68 c0 0.68 0.2 1.28 0.84 1.68 c0.4 0.24 0.8 0.56 1.2 0.88 c0.56 0.44 0.68 0.92 0.32 1.56 c-0.32 0.56 -0.84 0.96 -2.04 2.08 c-0.8 0.8 -1.72 0.88 -2.64 0.16 c-0.92 -0.76 -1.8 -1.56 -2.72 -2.36 c-0.32 -0.28 -0.44 -0.64 -0.4 -1.04 c0.12 -2.8 0.04 -5.6 0.04 -8.4 c0 -0.92 0.36 -1.64 1.12 -2.2 l6.92 -4.88 c0.68 -0.48 1.52 -0.44 2.12 0.08 c1 0.92 2.2 1.56 3.2 2.48 z M400.31999999999994 37.4 c0.24 -0.28 0.08 -0.52 -0.16 -0.72 l-1.12 -0.92 c-0.48 -0.32 -0.64 -0.8 -0.6 -1.36 c0.04 -2.32 0.04 -4.64 0.04 -6.96 c0.04 -0.4 -0.04 -0.76 -0.52 -0.76 s-0.56 0.36 -0.56 0.76 l-0.08 6.64 c-0.24 1.8 0.96 2.64 2.2 3.48 c0.28 0.2 0.6 0.16 0.8 -0.16 z M406.55999999999995 25.119999999999997 c0.28 -0.32 0.08 -0.56 -0.2 -0.8 l-1.92 -1.68 c-0.16 -0.12 -0.32 -0.24 -0.52 -0.2 c-0.28 0 -0.44 0.12 -0.52 0.32 c-0.12 0.24 -0.04 0.44 0.16 0.6 c0.68 0.6 1.4 1.24 2.12 1.8 c0.28 0.28 0.64 0.32 0.88 -0.04 z M409.75999999999993 35.8 c0 -2.68 0.04 -5.36 0 -8.08 c-0.04 -0.88 0.32 -1.56 1 -2 c2.52 -1.72 5.08 -3.4 7.64 -5.08 c0.72 -0.48 1.48 -0.4 2.16 0.12 l2.88 2.16 c0.52 0.36 0.76 0.88 0.76 1.52 l0 9.32 c0 0.52 0.2 0.84 0.6 1.08 c0.52 0.24 1 0.56 1.48 0.84 c0.56 0.32 0.68 0.76 0.28 1.28 c-0.76 0.96 -1.56 1.84 -2.48 2.68 c-0.6 0.52 -1.56 0.4 -2.32 -0.16 c-0.92 -0.68 -1.84 -1.36 -2.72 -2.08 c-0.24 -0.2 -0.4 -0.2 -0.64 0 l-2.32 2 c-0.96 0.84 -1.8 0.84 -2.84 0.04 l-2.64 -1.96 c-0.6 -0.4 -0.84 -0.96 -0.84 -1.68 z M415.63999999999993 24.36 c-0.68 0.32 -0.76 1 -0.76 1.64 c0.08 2.52 0.04 5.04 0.04 7.56 c0 0.4 0.08 0.8 0.4 1.12 c0.52 0.6 1.2 1 1.92 1.32 c0.2 0.12 0.44 0.04 0.6 -0.08 c0.72 -0.44 1.32 -1.04 1.32 -2 c0.04 -1.12 0 -2.24 0.04 -6.04 c0.16 -1.52 -0.6 -2.44 -1.72 -3.24 c-0.56 -0.44 -1.2 -0.6 -1.84 -0.28 z M418.87999999999994 22.24 c-0.28 0.28 -0.16 0.56 0.12 0.84 c0.44 0.36 0.84 0.76 1.32 1.12 c0.64 0.48 0.88 1.12 0.88 1.88 c0 2.28 -0.08 4.52 -0.08 6.8 c0 2.88 -0.36 2.96 2.28 4.8 c0.24 0.2 0.52 0.4 0.8 0.04 c0.24 -0.36 0.2 -0.68 -0.16 -0.96 l-1.24 -0.92 c-0.32 -0.28 -0.56 -0.6 -0.56 -1.08 c0.04 -1.48 0.04 -2.92 0.04 -8.76 c0 -0.96 -0.32 -1.84 -1.04 -2.48 c-0.48 -0.48 -1 -0.88 -1.52 -1.28 c-0.28 -0.24 -0.6 -0.28 -0.84 0 z M412.0399999999999 27.36 l-0.08 7.92 c0 0.4 0.16 0.8 0.4 1.16 c0.48 0.68 1.2 1.12 1.84 1.6 c0.28 0.2 0.6 0.08 0.8 -0.2 s0.08 -0.52 -0.2 -0.72 c-0.32 -0.24 -0.6 -0.56 -0.96 -0.76 c-0.64 -0.4 -0.8 -0.92 -0.8 -1.64 c0.08 -2.16 0.08 -4.36 0.08 -6.52 c0 -0.68 0 -1.36 0.56 -1.88 c0.16 -0.16 0.16 -0.4 0 -0.6 c-0.12 -0.2 -0.24 -0.28 -0.48 -0.28 c-0.16 0 -0.28 0.08 -0.4 0.24 c-0.48 0.44 -0.76 1 -0.76 1.68 z"></path></g></svg>