<?xml version="1.0" encoding="iso-8859-1"?>
<!-- Generator: Adobe Illustrator 19.0.0, SVG Export Plug-In . SVG Version: 6.00 Build 0)  -->
<svg version="1.1" id="Layer_1" xmlns="http://www.w3.org/2000/svg" xmlns:xlink="http://www.w3.org/1999/xlink" x="0px" y="0px"
	 viewBox="0 0 512 512" style="enable-background:new 0 0 512 512;" xml:space="preserve">
<rect x="264.533" y="187.733" style="fill:#AFB42B;" width="136.533" height="42.667"/>
<rect x="315.733" y="17.067" style="fill:#717272;" width="119.467" height="42.667"/>
<rect x="358.4" y="76.8" style="fill:#BDBDBD;" width="34.133" height="59.733"/>
<rect x="136.533" y="128" style="fill:#FFFFFF;" width="42.667" height="93.867"/>
<rect x="17.067" y="384" style="fill:#BDBDBD;" width="477.867" height="110.933"/>
<path style="fill:#717272;" d="M436.651,153.6H196.267v51.2h25.6c4.693,0,8.533,3.84,8.533,8.533v51.2
	c0,4.693-3.84,8.533-8.533,8.533h-128c-4.693,0-8.533-3.84-8.533-8.533v-51.2c0-4.693,3.84-8.533,8.533-8.533h25.6v-51.2H75.349
	L35.84,366.933h440.32L436.651,153.6z M273.067,349.867H256c-4.693,0-8.533-3.84-8.533-8.533s3.84-8.533,8.533-8.533h17.067
	c4.693,0,8.533,3.84,8.533,8.533S277.76,349.867,273.067,349.867z M273.067,315.733H256c-4.693,0-8.533-3.84-8.533-8.533
	s3.84-8.533,8.533-8.533h17.067c4.693,0,8.533,3.84,8.533,8.533S277.76,315.733,273.067,315.733z M273.067,281.6H256
	c-4.693,0-8.533-3.84-8.533-8.533s3.84-8.533,8.533-8.533h17.067c4.693,0,8.533,3.84,8.533,8.533S277.76,281.6,273.067,281.6z
	 M341.333,349.867h-17.067c-4.693,0-8.533-3.84-8.533-8.533s3.84-8.533,8.533-8.533h17.067c4.693,0,8.533,3.84,8.533,8.533
	S346.027,349.867,341.333,349.867z M341.333,315.733h-17.067c-4.693,0-8.533-3.84-8.533-8.533s3.84-8.533,8.533-8.533h17.067
	c4.693,0,8.533,3.84,8.533,8.533S346.027,315.733,341.333,315.733z M341.333,281.6h-17.067c-4.693,0-8.533-3.84-8.533-8.533
	s3.84-8.533,8.533-8.533h17.067c4.693,0,8.533,3.84,8.533,8.533S346.027,281.6,341.333,281.6z M409.6,349.867h-17.067
	c-4.693,0-8.533-3.84-8.533-8.533s3.84-8.533,8.533-8.533H409.6c4.693,0,8.533,3.84,8.533,8.533S414.293,349.867,409.6,349.867z
	 M409.6,315.733h-17.067c-4.693,0-8.533-3.84-8.533-8.533s3.84-8.533,8.533-8.533H409.6c4.693,0,8.533,3.84,8.533,8.533
	S414.293,315.733,409.6,315.733z M409.6,281.6h-17.067c-4.693,0-8.533-3.84-8.533-8.533s3.84-8.533,8.533-8.533H409.6
	c4.693,0,8.533,3.84,8.533,8.533S414.293,281.6,409.6,281.6z M418.133,238.933c0,4.693-3.84,8.533-8.533,8.533H256
	c-4.693,0-8.533-3.84-8.533-8.533V179.2c0-4.693,3.84-8.533,8.533-8.533h153.6c4.693,0,8.533,3.84,8.533,8.533V238.933z"/>
<path d="M503.467,366.933h-9.984l-41.387-223.403c-0.683-4.096-4.267-6.997-8.363-6.997H409.6V76.8h34.133
	c4.693,0,8.533-3.84,8.533-8.533V8.533c0-4.693-3.84-8.533-8.533-8.533H307.2c-4.693,0-8.533,3.84-8.533,8.533v59.733
	c0,4.693,3.84,8.533,8.533,8.533h34.133v59.733H196.267v-17.067c0-4.693-3.84-8.533-8.533-8.533H128
	c-4.693,0-8.533,3.84-8.533,8.533v17.067h-51.2c-4.096,0-7.68,2.901-8.363,6.997L18.517,366.933H8.533
	c-4.693,0-8.533,3.84-8.533,8.533v128C0,508.16,3.84,512,8.533,512h494.933c4.693,0,8.533-3.84,8.533-8.533v-128
	C512,370.773,508.16,366.933,503.467,366.933z M315.733,59.733V17.067H435.2v42.667H315.733z M392.533,76.8v59.733H358.4V76.8
	H392.533z M136.533,128H179.2v93.867h-42.667V128z M128,238.933h59.733c4.693,0,8.533-3.84,8.533-8.533v-8.533h17.067V256H102.4
	v-34.133h17.067v8.533C119.467,235.093,123.307,238.933,128,238.933z M75.349,153.6h44.117v51.2h-25.6
	c-4.693,0-8.533,3.84-8.533,8.533v51.2c0,4.693,3.84,8.533,8.533,8.533h128c4.693,0,8.533-3.84,8.533-8.533v-51.2
	c0-4.693-3.84-8.533-8.533-8.533h-25.6v-51.2h240.384l39.509,213.333H35.84L75.349,153.6z M494.933,494.933H17.067V384h477.867
	V494.933z"/>
<path style="fill:#717272;" d="M213.333,221.867V256H102.4v-34.133h17.067v8.533c0,4.693,3.84,8.533,8.533,8.533h59.733
	c4.693,0,8.533-3.84,8.533-8.533v-8.533H213.333z"/>
<path d="M409.6,170.667H256c-4.693,0-8.533,3.84-8.533,8.533v59.733c0,4.693,3.84,8.533,8.533,8.533h153.6
	c4.693,0,8.533-3.84,8.533-8.533V179.2C418.133,174.507,414.293,170.667,409.6,170.667z M401.067,230.4H264.533v-42.667h136.533
	V230.4z"/>
<path d="M418.133,273.067c0,4.693-3.84,8.533-8.533,8.533h-17.067c-4.693,0-8.533-3.84-8.533-8.533s3.84-8.533,8.533-8.533H409.6
	C414.293,264.533,418.133,268.373,418.133,273.067z"/>
<path d="M349.867,273.067c0,4.693-3.84,8.533-8.533,8.533h-17.067c-4.693,0-8.533-3.84-8.533-8.533s3.84-8.533,8.533-8.533h17.067
	C346.027,264.533,349.867,268.373,349.867,273.067z"/>
<path d="M281.6,273.067c0,4.693-3.84,8.533-8.533,8.533H256c-4.693,0-8.533-3.84-8.533-8.533s3.84-8.533,8.533-8.533h17.067
	C277.76,264.533,281.6,268.373,281.6,273.067z"/>
<path d="M418.133,307.2c0,4.693-3.84,8.533-8.533,8.533h-17.067c-4.693,0-8.533-3.84-8.533-8.533s3.84-8.533,8.533-8.533H409.6
	C414.293,298.667,418.133,302.507,418.133,307.2z"/>
<path d="M349.867,307.2c0,4.693-3.84,8.533-8.533,8.533h-17.067c-4.693,0-8.533-3.84-8.533-8.533s3.84-8.533,8.533-8.533h17.067
	C346.027,298.667,349.867,302.507,349.867,307.2z"/>
<path d="M281.6,307.2c0,4.693-3.84,8.533-8.533,8.533H256c-4.693,0-8.533-3.84-8.533-8.533s3.84-8.533,8.533-8.533h17.067
	C277.76,298.667,281.6,302.507,281.6,307.2z"/>
<path d="M418.133,341.333c0,4.693-3.84,8.533-8.533,8.533h-17.067c-4.693,0-8.533-3.84-8.533-8.533s3.84-8.533,8.533-8.533H409.6
	C414.293,332.8,418.133,336.64,418.133,341.333z"/>
<path d="M349.867,341.333c0,4.693-3.84,8.533-8.533,8.533h-17.067c-4.693,0-8.533-3.84-8.533-8.533s3.84-8.533,8.533-8.533h17.067
	C346.027,332.8,349.867,336.64,349.867,341.333z"/>
<path d="M281.6,341.333c0,4.693-3.84,8.533-8.533,8.533H256c-4.693,0-8.533-3.84-8.533-8.533s3.84-8.533,8.533-8.533h17.067
	C277.76,332.8,281.6,336.64,281.6,341.333z"/>
<polygon style="fill:#A4A4A5;" points="469.333,384 469.333,469.333 17.067,469.333 17.067,494.933 494.933,494.933 494.933,384 "/>
<polygon style="fill:#555656;" points="436.651,153.6 415.795,153.6 450.56,341.333 456.004,366.933 476.16,366.933 "/>
<polygon style="fill:#A4A4A5;" points="375.467,76.8 375.467,119.467 375.467,119.467 375.467,136.533 392.533,136.533 
	392.533,76.8 "/>
<polygon style="fill:#F4F4F4;" points="162.133,128 162.133,204.8 162.133,204.8 162.133,221.867 179.2,221.867 179.2,128 "/>
<polygon style="fill:#827717;" points="384,187.733 384,213.333 264.533,213.333 264.533,230.4 384,230.4 401.067,230.4 
	401.067,213.333 401.067,187.733 "/>
<polygon style="fill:#555656;" points="418.133,17.067 418.133,42.667 315.733,42.667 315.733,59.733 418.133,59.733 435.2,59.733 
	435.2,42.667 435.2,17.067 "/>
<g>
</g>
<g>
</g>
<g>
</g>
<g>
</g>
<g>
</g>
<g>
</g>
<g>
</g>
<g>
</g>
<g>
</g>
<g>
</g>
<g>
</g>
<g>
</g>
<g>
</g>
<g>
</g>
<g>
</g>
</svg>
